# xmcd
#
# Track frame offsets:
#	150
#	8977
#	25396
#	38760
#	49271
#	59279
#	73286
#	85910
#	98018
#	108663
#	122662
#	136041
#	150129
#	164417
#	177369
#	188236
#	201426
#	214302
#	226419
#	240756
#
# Disc length: 3396 seconds
# Revision: 0
# Processed by: cddbd v1.5.2PL0 Copyright (c) Steve Scherf et al.
# Submitted via: dBpowerAMP V12.0
#
DISCID=0f0d4214
DTITLE=Ronny CD4 - Das Beste - Das große Lebenswerk
DYEAR=2016
DGENRE=Volkstümlich
TTITLE0=Muss i denn, muss i denn zum Städtele hinaus
TTITLE1=Sierra Madre del Sur
TTITLE2=Die Sonne geht unter, die Sonne geht auf
TTITLE3=Jesse James
TTITLE4=Kleine Möwe flieg nach Helgoland
TTITLE5=San Antonio Rose
TTITLE6=Sweetheart, es war schön (Es geht ein Mann nach Buffalo)
TTITLE7=Wir lieben die Stürme
TTITLE8=Michael, bring' Dein Boot an Land
TTITLE9=Nur noch einmal nach Haus (Detroit City)
TTITLE10=Good Morning, My Sweet Adalita
TTITLE11=My Bonnie Is Over The Ocean
TTITLE12=Alle Wunder dieser Welt
TTITLE13=Lang, lang ist's her
TTITLE14=Rebecca
TTITLE15=Von den Bergen rauscht ein Wasser
TTITLE16=Majorie
TTITLE17=Glory Glory Hallelujah
TTITLE18=Bei Dir am Red River (Die Sonne geht unter)
TTITLE19=Billy Joe (Don't Take Your Guns To Town)
EXTD=
EXTT0=
EXTT1=
EXTT2=
EXTT3=
EXTT4=
EXTT5=
EXTT6=
EXTT7=
EXTT8=
EXTT9=
EXTT10=
EXTT11=
EXTT12=
EXTT13=
EXTT14=
EXTT15=
EXTT16=
EXTT17=
EXTT18=
EXTT19=
PLAYORDER=
